<?xml version="1.0" encoding="UTF-8" standalone="no"?>
<svg width="1247px" height="661px" viewBox="0 0 1247 661" version="1.1" xmlns="http://www.w3.org/2000/svg" xmlns:xlink="http://www.w3.org/1999/xlink" xmlns:sketch="http://www.bohemiancoding.com/sketch/ns">
    <!-- Generator: Sketch 3.0 (7574) - http://www.bohemiancoding.com/sketch -->
    <title>Artboard 3</title>
    <description>Created with Sketch.</description>
    <defs>
        <linearGradient x1="53.9789081%" y1="0%" x2="50%" y2="100%" id="linearGradient-1">
            <stop stop-color="#8C2323" offset="0%"></stop>
            <stop stop-color="#AC4444" offset="12.105389%"></stop>
            <stop stop-color="#BB5151" offset="100%"></stop>
        </linearGradient>
        <path d="M854.001652,422.115175 C833.554453,461.573607 804.036849,490 760.031073,490 C720.918079,490 705,454.407767 705,411.058252 C705,343.067961 744.112994,255 791.867232,255 C801.872881,255 812.333333,258.194175 817.79096,262.757282 C836.892655,265.038835 845.533898,282.378641 845.533898,304.737864 C845.533898,348.543689 812.788136,410.145631 764.579096,410.145631 C759.121469,410.145631 753.20904,409.23301 747.29661,407.407767 C747.29661,427.485437 749.115819,462.165049 777.313559,462.165049 C820.103745,462.165049 843.26615,413.827982 855.194796,394.723624 C856.842453,374.985016 860.103817,353.328435 864.410526,331.040712 C881.157895,239.946565 905.6,151.129771 946.336842,147.486005 C953.126316,147.486005 959.463158,149.763359 963.989474,153.407125 C970.778947,155.229008 982.094737,159.783715 982.094737,188.478372 C982.094737,245.412214 945.884211,367.933842 897,379.776081 C893.831579,400.727735 892.021053,419.402036 892.021053,432.155216 C892.021053,451.740458 897.452632,460.849873 910.126316,460.849873 C933.210526,460.849873 960.368421,427.600509 976.663158,396.173028 C983,303.712468 1026.45263,132 1074.43158,132 C1082.57895,132 1089.36842,136.554707 1092.53684,141.109415 C1103.85263,147.941476 1112,155.684478 1112,186.201018 C1112,251.333333 1075.33684,374.765903 1023.28421,374.765903 C1021.92632,374.765903 1021.02105,374.310433 1019.66316,374.310433 C1016.04211,397.994911 1013.77895,418.491094 1013.77895,432.155216 C1013.77895,451.740458 1019.21053,460.849873 1031.88421,460.849873 C1055.87368,460.849873 1083.93684,425.323155 1099.77895,393.440204 C1102.04211,388.430025 1104.75789,386.608142 1107.02105,386.608142 C1108.83158,386.608142 1110.18947,388.430025 1110.18947,391.618321 C1110.18947,393.440204 1109.73684,395.262087 1108.83158,397.994911 C1094.8,433.066158 1055.87368,490 1016.94737,490 C986.168421,490 975.757895,462.216285 975.757895,421.223919 C957.2,454.017812 925.968421,490 895.189474,490 C864.634116,490 854.152327,462.618482 854.001652,422.115175 L854.001652,422.115175 Z M609.54902,288.644444 C609.54902,249.922222 648.252723,180.677778 680.581699,182.044444 C684.224401,187.966667 686.045752,194.344444 686.045752,201.177778 C686.045752,230.333333 653.716776,272.244444 653.716776,301.4 C653.716776,317.8 664.189542,323.266667 676.028322,323.266667 C689.233115,323.266667 696.518519,315.977778 699.250545,300.488889 C709.267974,243.088889 712,226.233333 712,216.211111 C712,202.544444 706.535948,184.322222 688.32244,175.666667 C687.411765,169.744444 672.385621,162 659.636166,162 C618.655773,162 565.381264,243.088889 565.381264,299.577778 C565.381264,372.922222 654.172113,401.622222 654.172113,438.522222 C654.172113,449 646.88671,462.211111 618.655773,462.211111 C566.291939,462.211111 561.738562,417.111111 530.775599,417.111111 C515.749455,417.111111 503,427.588889 503,437.611111 C503,441.711111 504.821351,444.9 508.008715,448.088889 C545.346405,482.711111 566.747277,490 590.424837,490 C623.20915,490 650.529412,475.877778 656.904139,461.3 C668.287582,454.466667 679.671024,435.788889 679.671024,413.466667 C679.671024,358.344444 609.54902,341.033333 609.54902,288.644444 Z M750,394.542751 C755.526316,339.672862 785.921053,272 812.171053,272 C819.078947,272 820,279.773234 820,287.089219 C820,322.754647 780.855263,395 753.684211,395 C752.302632,395 751.381579,395 750,394.542751 Z M1087.66038,152 C1095.78724,209.199143 1065.98876,325.867238 1024,364 C1038.89924,277.747323 1071.40667,158.35546 1087.66038,152 Z M960.041858,166 C966.91688,220.446953 935.750114,325.711061 900,367 C913.750044,286.690745 942.625136,177.343115 960.041858,166 Z" id="path-2"></path>
    </defs>
    <g id="Page-1" stroke="none" stroke-width="1" fill="none" fill-rule="evenodd" sketch:type="MSPage">
        <g id="Artboard-3" sketch:type="MSArtboardGroup">
            <rect id="Rectangle-1" fill="#F1D2D2" sketch:type="MSShapeGroup" transform="translate(387.000000, 321.000000) rotate(-11.000000) translate(-387.000000, -321.000000) " x="356" y="290" width="62" height="62"></rect>
            <g id="Group" sketch:type="MSLayerGroup" transform="translate(386.204600, 322.432155) rotate(-11.000000) translate(-386.204600, -322.432155) translate(135.704600, 71.932155)">
                <path d="M220,261.394678 L220,50 C220,22.3857625 197.614237,-1.47792889e-12 170,-1.47792889e-12 C142.385763,-1.47792889e-12 120,22.3857625 120,50 L120,264.026733 L120,450 C120,477.614237 142.385763,500 170,500 C197.614237,500 220,477.614237 220,450 L220,261.394678 Z" id="vertical-left" fill="#B74D4D" sketch:type="MSShapeGroup"></path>
                <path d="M380,50 C380,22.3857625 357.614237,-6.25277607e-13 330,-6.25277607e-13 C302.385763,-6.25277607e-13 280,22.3857625 280,50 L280,450 C280,477.614237 302.385763,500 330,500 C357.614237,500 380,477.614237 380,450 L380,50 Z" id="vertical-right" fill="#B74D4D" sketch:type="MSShapeGroup"></path>
                <path d="M300,130 C300,102.385763 277.614237,80 250,80 C222.385763,80 200,102.385763 200,130 L200,530 C200,557.614237 222.385763,580 250,580 C277.614237,580 300,557.614237 300,530 L300,130 Z" id="horizontal-bottom" fill="#B74D4D" sketch:type="MSShapeGroup" transform="translate(250.000000, 330.000000) rotate(-270.000000) translate(-250.000000, -330.000000) "></path>
                <path d="M299.998085,-30.0237681 C299.998085,-57.6380056 277.612322,-80.0237681 249.998085,-80.0237681 C222.383847,-80.0237681 199.998085,-57.6380056 199.998085,-30.0237681 L199.998085,369.976232 C199.998085,397.590469 222.383847,419.976232 249.998085,419.976232 C277.612322,419.976232 299.998085,397.590469 299.998085,369.976232 L299.998085,-30.0237681 Z" id="horizontal-top" fill="#B74D4D" sketch:type="MSShapeGroup" transform="translate(249.998085, 169.976232) rotate(-270.000000) translate(-249.998085, -169.976232) "></path>
                <path d="M219.572427,220.055118 L119.572427,220.055118 L119.572427,451.074226 C119.572427,478.677911 141.958189,501.055118 169.572427,501.055118 C197.186664,501.055118 219.572427,478.677911 219.572427,451.074226 L219.572427,220.055118 Z" id="shadow-bottom-right" fill="url(#linearGradient-1)" sketch:type="MSShapeGroup"></path>
                <path d="M380,1 L280,1 L280,232.019108 C280,259.622792 302.385763,282 330,282 C357.614237,282 380,259.622792 380,232.019108 L380,1 Z" id="Shadow-top-right" fill="url(#linearGradient-1)" sketch:type="MSShapeGroup" transform="translate(330.000000, 141.500000) rotate(-180.000000) translate(-330.000000, -141.500000) "></path>
                <path d="M190,30 L90,30 L90,261.019108 C90,288.622792 112.385763,311 140,311 C167.614237,311 190,288.622792 190,261.019108 L190,30 Z" id="Shadow-top-left" fill="url(#linearGradient-1)" sketch:type="MSShapeGroup" transform="translate(140.000000, 170.500000) rotate(-270.000000) translate(-140.000000, -170.500000) "></path>
                <path d="M410,190 L310,190 L310,421.019108 C310,448.622792 332.385763,471 360,471 C387.614237,471 410,448.622792 410,421.019108 L410,190 Z" id="Shadow-bottom-right" fill="url(#linearGradient-1)" sketch:type="MSShapeGroup" transform="translate(360.000000, 330.500000) rotate(-90.000000) translate(-360.000000, -330.500000) "></path>
            </g>
            <g id="Sell" stroke-linecap="round" stroke-linejoin="round">
                <use stroke="#B74E4E" stroke-width="13" fill="#842E2E" fill-rule="evenodd" sketch:type="MSShapeGroup" xlink:href="#path-2"></use>
                <use stroke="#FFFFFF" stroke-width="8" fill="none" xlink:href="#path-2"></use>
            </g>
            <text id="ALPHA" sketch:type="MSTextLayer" transform="translate(197.000000, 550.500000) rotate(352.000000) translate(-197.000000, -550.500000) " font-family="Arvil" font-size="104" font-weight="normal" fill="#B74D4D">
                <tspan x="118" y="581">ALPHA</tspan>
            </text>
        </g>
    </g>
</svg>