<?xml version="1.0" encoding="UTF-8" standalone="no"?>
<svg width="1033px" height="528px" viewBox="0 0 1033 528" version="1.1" xmlns="http://www.w3.org/2000/svg" xmlns:xlink="http://www.w3.org/1999/xlink" xmlns:sketch="http://www.bohemiancoding.com/sketch/ns">
    <!-- Generator: Sketch 3.0 (7574) - http://www.bohemiancoding.com/sketch -->
    <title>Artboard 3</title>
    <description>Created with Sketch.</description>
    <defs>
        <linearGradient x1="53.9789081%" y1="0%" x2="50%" y2="100%" id="linearGradient-1">
            <stop stop-color="#8C2323" offset="0%"></stop>
            <stop stop-color="#AC4444" offset="12.105389%"></stop>
            <stop stop-color="#BB5151" offset="100%"></stop>
        </linearGradient>
        <path d="M732.001652,363.115175 C711.554453,402.573607 682.036849,431 638.031073,431 C598.918079,431 583,395.407767 583,352.058252 C583,284.067961 622.112994,196 669.867232,196 C679.872881,196 690.333333,199.194175 695.79096,203.757282 C714.892655,206.038835 723.533898,223.378641 723.533898,245.737864 C723.533898,289.543689 690.788136,351.145631 642.579096,351.145631 C637.121469,351.145631 631.20904,350.23301 625.29661,348.407767 C625.29661,368.485437 627.115819,403.165049 655.313559,403.165049 C698.103745,403.165049 721.26615,354.827982 733.194796,335.723624 C734.842453,315.985016 738.103817,294.328435 742.410526,272.040712 C759.157895,180.946565 783.6,92.129771 824.336842,88.4860051 C831.126316,88.4860051 837.463158,90.7633588 841.989474,94.4071247 C848.778947,96.2290076 860.094737,100.783715 860.094737,129.478372 C860.094737,186.412214 823.884211,308.933842 775,320.776081 C771.831579,341.727735 770.021053,360.402036 770.021053,373.155216 C770.021053,392.740458 775.452632,401.849873 788.126316,401.849873 C811.210526,401.849873 838.368421,368.600509 854.663158,337.173028 C861,244.712468 904.452632,73 952.431579,73 C960.578947,73 967.368421,77.5547074 970.536842,82.1094148 C981.852632,88.9414758 990,96.6844784 990,127.201018 C990,192.333333 953.336842,315.765903 901.284211,315.765903 C899.926316,315.765903 899.021053,315.310433 897.663158,315.310433 C894.042105,338.994911 891.778947,359.491094 891.778947,373.155216 C891.778947,392.740458 897.210526,401.849873 909.884211,401.849873 C933.873684,401.849873 961.936842,366.323155 977.778947,334.440204 C980.042105,329.430025 982.757895,327.608142 985.021053,327.608142 C986.831579,327.608142 988.189474,329.430025 988.189474,332.618321 C988.189474,334.440204 987.736842,336.262087 986.831579,338.994911 C972.8,374.066158 933.873684,431 894.947368,431 C864.168421,431 853.757895,403.216285 853.757895,362.223919 C835.2,395.017812 803.968421,431 773.189474,431 C742.634116,431 732.152327,403.618482 732.001652,363.115175 L732.001652,363.115175 Z M487.54902,229.644444 C487.54902,190.922222 526.252723,121.677778 558.581699,123.044444 C562.224401,128.966667 564.045752,135.344444 564.045752,142.177778 C564.045752,171.333333 531.716776,213.244444 531.716776,242.4 C531.716776,258.8 542.189542,264.266667 554.028322,264.266667 C567.233115,264.266667 574.518519,256.977778 577.250545,241.488889 C587.267974,184.088889 590,167.233333 590,157.211111 C590,143.544444 584.535948,125.322222 566.32244,116.666667 C565.411765,110.744444 550.385621,103 537.636166,103 C496.655773,103 443.381264,184.088889 443.381264,240.577778 C443.381264,313.922222 532.172113,342.622222 532.172113,379.522222 C532.172113,390 524.88671,403.211111 496.655773,403.211111 C444.291939,403.211111 439.738562,358.111111 408.775599,358.111111 C393.749455,358.111111 381,368.588889 381,378.611111 C381,382.711111 382.821351,385.9 386.008715,389.088889 C423.346405,423.711111 444.747277,431 468.424837,431 C501.20915,431 528.529412,416.877778 534.904139,402.3 C546.287582,395.466667 557.671024,376.788889 557.671024,354.466667 C557.671024,299.344444 487.54902,282.033333 487.54902,229.644444 Z M628,335.542751 C633.526316,280.672862 663.921053,213 690.171053,213 C697.078947,213 698,220.773234 698,228.089219 C698,263.754647 658.855263,336 631.684211,336 C630.302632,336 629.381579,336 628,335.542751 Z M965.660382,93 C973.787239,150.199143 943.988762,266.867238 902,305 C916.899238,218.747323 949.406667,99.3554604 965.660382,93 Z M838.041858,107 C844.91688,161.446953 813.750114,266.711061 778,308 C791.750044,227.690745 820.625136,118.343115 838.041858,107 Z" id="path-2"></path>
    </defs>
    <g id="Page-1" stroke="none" stroke-width="1" fill="none" fill-rule="evenodd" sketch:type="MSPage">
        <g id="Artboard-3" sketch:type="MSArtboardGroup">
            <g id="Group" sketch:type="MSLayerGroup" transform="translate(264.204600, 263.432155) rotate(-11.000000) translate(-264.204600, -263.432155) translate(13.704600, 12.932155)">
                <path d="M220,261.394678 L220,50 C220,22.3857625 197.614237,-6.25277607e-13 170,-6.25277607e-13 C142.385763,-6.25277607e-13 120,22.3857625 120,50 L120,264.026733 L120,450 C120,477.614237 142.385763,500 170,500 C197.614237,500 220,477.614237 220,450 L220,261.394678 Z" id="Rectangle-3" fill="#B74D4D" sketch:type="MSShapeGroup"></path>
                <path d="M380,50 C380,22.3857625 357.614237,2.27373675e-13 330,2.27373675e-13 C302.385763,2.27373675e-13 280,22.3857625 280,50 L280,450 C280,477.614237 302.385763,500 330,500 C357.614237,500 380,477.614237 380,450 L380,50 Z" id="Rectangle-2" fill="#B74D4D" sketch:type="MSShapeGroup"></path>
                <path d="M300,130 C300,102.385763 277.614237,80 250,80 C222.385763,80 200,102.385763 200,130 L200,530 C200,557.614237 222.385763,580 250,580 C277.614237,580 300,557.614237 300,530 L300,130 Z" id="Rectangle-5" fill="#B74D4D" sketch:type="MSShapeGroup" transform="translate(250.000000, 330.000000) rotate(-270.000000) translate(-250.000000, -330.000000) "></path>
                <path d="M300.508197,-29.8397377 C300.508197,-57.4539752 278.122434,-79.8397377 250.508197,-79.8397377 C222.893959,-79.8397377 200.508197,-57.4539752 200.508197,-29.8397377 L200.508197,370.160262 C200.508197,397.7745 222.893959,420.160262 250.508197,420.160262 C278.122434,420.160262 300.508197,397.7745 300.508197,370.160262 L300.508197,-29.8397377 Z" id="Rectangle-6" fill="#B74D4D" sketch:type="MSShapeGroup" transform="translate(250.508197, 170.160262) rotate(-270.000000) translate(-250.508197, -170.160262) "></path>
                <path d="M219.572427,220.055118 L119.572427,220.055118 L119.572427,451.074226 C119.572427,478.677911 141.958189,501.055118 169.572427,501.055118 C197.186664,501.055118 219.572427,478.677911 219.572427,451.074226 L219.572427,220.055118 Z" id="Rectangle-7" fill="url(#linearGradient-1)" sketch:type="MSShapeGroup"></path>
                <path d="M380,1 L280,1 L280,232.019108 C280,259.622792 302.385763,282 330,282 C357.614237,282 380,259.622792 380,232.019108 L380,1 Z" id="Rectangle-8" fill="url(#linearGradient-1)" sketch:type="MSShapeGroup" transform="translate(330.000000, 141.500000) rotate(-180.000000) translate(-330.000000, -141.500000) "></path>
                <path d="M190,30 L90,30 L90,261.019108 C90,288.622792 112.385763,311 140,311 C167.614237,311 190,288.622792 190,261.019108 L190,30 Z" id="Rectangle-9" fill="url(#linearGradient-1)" sketch:type="MSShapeGroup" transform="translate(140.000000, 170.500000) rotate(-270.000000) translate(-140.000000, -170.500000) "></path>
                <path d="M409.618382,191.963254 L309.618382,191.963254 L309.618382,422.982362 C309.618382,450.586047 332.004145,472.963254 359.618382,472.963254 C387.232619,472.963254 409.618382,450.586047 409.618382,422.982362 L409.618382,191.963254 Z" id="Rectangle-10" fill="url(#linearGradient-1)" sketch:type="MSShapeGroup" transform="translate(359.618382, 332.463254) rotate(-90.000000) translate(-359.618382, -332.463254) "></path>
            </g>
            <text id="TM" fill="#B74D4D" sketch:type="MSTextLayer" font-family="Hiragino Maru Gothic Pro" font-size="20" font-weight="normal">
                <tspan x="997" y="277" fill="#C24D4D">TM</tspan>
            </text>
            <g id="Sell" stroke-linecap="round" stroke-linejoin="round">
                <use stroke="#B74E4E" stroke-width="13" fill="#842E2E" fill-rule="evenodd" sketch:type="MSShapeGroup" xlink:href="#path-2"></use>
                <use stroke="#FFFFFF" stroke-width="8" fill="none" xlink:href="#path-2"></use>
            </g>
        </g>
    </g>
</svg>